<?xml version="1.0" encoding="UTF-8" standalone="no"?>
<svg
   id="Layer_1"
   data-name="Layer 1"
   viewBox="0 0 511.97876 369.71545"
   version="1.1"
   width="511.97876"
   height="369.71545"
   xmlns="http://www.w3.org/2000/svg"
   xmlns:svg="http://www.w3.org/2000/svg"
   xmlns:rdf="http://www.w3.org/1999/02/22-rdf-syntax-ns#"
   xmlns:cc="http://creativecommons.org/ns#"
   xmlns:dc="http://purl.org/dc/elements/1.1/">
  <defs
     id="defs1" />
  <title
     id="title1">volume-glyph</title>
  <path
     d="M 234.67,35.517729 V 334.17773 a 21.33,21.33 0 0 1 -34.67,16.67 l -100.82,-80.67 H 64 a 64.07,64.07 0 0 1 -64,-64 v -42.66 A 64.07,64.07 0 0 1 64,99.517729 h 35.18 l 100.82,-80.67 a 21.33,21.33 0 0 1 34.66,16.66 z m 54.11,90.680001 a 21.33,21.33 0 0 0 -1.19,30.15 42.23,42.23 0 0 1 0,57 21.345778,21.345778 0 1 0 31.33,29 84.89,84.89 0 0 0 0,-114.94 21.34,21.34 0 0 0 -30.14,-1.22 z M 379,66.717729 a 21.330846,21.330846 0 0 0 -30.78,29.54 127.61,127.61 0 0 1 0,177.190001 21.330846,21.330846 0 1 0 30.78,29.54 170.26,170.26 0 0 0 0,-236.270001 z M 439.36,6.1177289 a 21.34,21.34 0 0 0 -30.55,29.7900001 213.59,213.59 0 0 1 0,297.900001 21.34,21.34 0 0 0 30.55,29.79 256.28,256.28 0 0 0 0,-357.4800011 z"
     id="path1"
     style="fill:#ffffff;fill-opacity:1" />
  <metadata
     id="metadata1">
    <rdf:RDF>
      <cc:Work
         rdf:about="">
        <dc:title>volume-glyph</dc:title>
      </cc:Work>
    </rdf:RDF>
  </metadata>
</svg>
