<?xml version="1.0" encoding="UTF-8" standalone="no"?>
<svg
   id="Layer_1"
   data-name="Layer 1"
   viewBox="0 0 512.01587 372.37976"
   version="1.1"
   width="512.01587"
   height="372.37976"
   xmlns="http://www.w3.org/2000/svg"
   xmlns:svg="http://www.w3.org/2000/svg"
   xmlns:rdf="http://www.w3.org/1999/02/22-rdf-syntax-ns#"
   xmlns:cc="http://creativecommons.org/ns#"
   xmlns:dc="http://purl.org/dc/elements/1.1/">
  <defs
     id="defs1" />
  <title
     id="title1">volume-muted-glyph</title>
  <path
     d="m 256,23.2479 v 325.86 a 23.27,23.27 0 0 1 -37.81,18.17 l -110,-88 H 69.83 A 69.9,69.9 0 0 1 0,209.4579 v -46.56 a 69.9,69.9 0 0 1 69.83,-69.82 h 38.39 l 110,-87.9999998 A 23.27,23.27 0 0 1 256,23.2479 Z m 196,162.83 53.2,-53.2 a 23.270884,23.270884 0 1 0 -32.91,-32.91 l -53.29,53.21 -53.44,-53.33 a 23.295665,23.295665 0 1 0 -32.89,33 l 53.41,53.29 -53.39,53.38 a 23.270884,23.270884 0 1 0 32.91,32.91 l 53.42,-53.42 52.86,52.75 a 23.295665,23.295665 0 0 0 32.89,-33 z"
     id="path1"
     style="fill:#ffffff;fill-opacity:1" />
  <metadata
     id="metadata1">
    <rdf:RDF>
      <cc:Work
         rdf:about="">
        <dc:title>volume-muted-glyph</dc:title>
      </cc:Work>
    </rdf:RDF>
  </metadata>
</svg>
